<svg id="Layer_1" data-name="Layer 1" xmlns="http://www.w3.org/2000/svg" width="64" height="64" viewBox="0 0 64 64"><defs><style>.cls-1{fill:#1d1d1b;}</style></defs><title>clock</title><path class="cls-1" d="M21.17,17.08c.21,0,.17,3,.34,7.5s.38,4,.66,4.25c.79.71,4.88.38,5.17,0s.42-10.58.37-10.75.71-.21,1.25-.21.88,0,1.13-.87-3.71-8.46-4.88-8.54-6.12,5.7-6.58,6.2S17.46,16.41,17.8,17,21,17,21.17,17.08Zm.42-2a20.92,20.92,0,0,1,3.17-3.58c.25-.05,2.62,3.91,2.33,4.12s-1.29,0-1.54,1.46.08,9.87-.25,10a2.77,2.77,0,0,1-1.54,0c-.17-.13-.38-8.54-.46-9.5s.16-1-.42-1.5S21.42,15.54,21.59,15Zm6.79,17.33a3.68,3.68,0,0,0-4.5-1.29c-5,1.63-3.25,5.21-1.33,6.29a5.06,5.06,0,0,0,5-.21C28.46,36.54,29.55,33.91,28.38,32.37ZM25.17,36c-1.29.12-2-.34-2.16-1.59s.66-1.62,1.66-1.79c.66-.11,2,.33,2.09,1.13A1.93,1.93,0,0,1,25.17,36Zm20.29,9.5a8.16,8.16,0,0,0-3,2C42.13,48,31.27,36.6,30.8,36.41s-3.34,2.46-3.5,3.17S37.76,51.75,37.76,51.75s-2.17,1.71-1.38,2.41,7.25,1.75,7.83,1.25,1.09-3.08,1.8-6.5S45.92,45.5,45.46,45.46Zm-2.58,7.83c-.33,0-3.83,0-3.54-.42s1.54-1.08.62-2S29.59,39.75,29.84,39.5a3.49,3.49,0,0,1,.79-.5S41.42,50.25,41.88,49.87s1.75-1.71,2-1.62S43.21,53.25,42.88,53.29Zm-18-18.92c-.5-.08-.58-.63-.92-.54-.91.25-.33,1.25.3,1.58a1.05,1.05,0,0,0,1.37-.33C26,34.75,25.38,34.46,24.88,34.37Zm-1.12-19c.25.05,1.25-1.58,1.54-1.95s-.42-.8-1-.75S23.09,14.83,23.05,15,23.51,15.37,23.76,15.41Z"/></svg>