<?xml version="1.0"?><svg xmlns="http://www.w3.org/2000/svg" viewBox="0 0 128 128"><g fill="#1d1d1b"><path d="m121.94 34.56c-.25-6.36-2.81-15.61-9.33-20.72s-15.44-8.5-25.1-8.59-54.5-.08-63.33.25-17.82 12.54-18.25 20.89c-.5 9.74-.99 39.3-.41 54.08s2.81 24.36 8.26 32.86 13.95 8.83 28.82 9.08c14.86.25 40.46 1.07 53.26-.83s19.4-7.68 23.04-15.61c3.63-7.93 3.55-16.6 3.8-30.55s-.5-34.51-.74-40.87zm-4.62 57.96c-.83 8.26-7.1 20.89-20.72 22.21s-43.93 1.32-56.81 1.32-22.71-1.07-26.83-12.88c-4.13-11.81-3.88-40.87-4.05-53.09s.58-21.72.58-21.72c.33-8.09 6.03-19.16 17.26-19.65 11.23-.5 55.57-.83 63.74-.25s26.92 6.44 27.5 22.95.17 52.84-.66 61.1z"/><path d="m97.67 73.69c-4.29-7.02-12.72-10.98-12.72-10.98s2.81-1.16 8.09-7.93 5.2-12.8 5.2-14.61-.74-3.72-2.56-3.8-10.73-.08-12.96.08c-2.23.17-2.56 1.9-2.72 3.14-.17 1.24.5 4.38-2.72 9.91s-8.17 6.28-8.17 6.28v-13.71c0-2.39-.91-3.72-2.23-4.05s-5.45-.33-9.25-.17c-3.8.17-3.72 2.23-3.8 4.54s.08 27 .08 27-5.28-1.32-10.24-8.75-4.95-17.59-4.71-19.65c.25-2.06-1.07-2.31-2.39-2.31s-12.05-.17-13.05-.08c-.99.08-.99 1.4-.99 2.72 0 0 .41 14.37 2.64 21.8s8.83 19.16 18.5 24.03c9.66 4.87 18.25 4.13 21.14 3.47s3.14-2.81 3.05-4.54 0-13.62 0-13.62 6.03-.17 9.74 3.47 4.62 7.35 5.12 9.91 1.82 4.05 3.3 4.13c1.49.08 11.48.08 13.05-.08 1.57-.17 2.72-.58 2.89-1.73s0-7.43-4.29-14.45zm.91 12.64c-.58.25-11.72.58-12.14.25-.41-.33-.66-8.42-6.44-12.96s-7.35-4.29-10.57-4.21-4.21.25-4.21 2.48-.17 12.06-.08 13.54c.08 1.49-2.56 1.98-8.01 1.98s-15.36-3.39-23.2-14.86c-7.84-11.48-7.84-23.78-7.93-30.14l9.91.08s-1.24 10.65 5.2 19.32 10.57 10.82 12.47 11.23 3.22-.33 3.39-.83-.41-30.8.08-30.88 8.34.25 8.34.25 0 16.51.41 16.84 3.3.25 4.95-.08 6.44-1.16 9.66-7.68 2.81-10.73 2.81-10.73l11.72.08s1.16 7.43-5.78 14.86-8.59 6.94-8.83 8.01c-.25 1.07-.25 2.06.25 2.06s7.1 1.82 12.47 9.08c5.37 7.27 6.11 12.06 5.53 12.3z"/><path d="m24.6 13.25c1.49.08 2.06 3.47.83 3.63-1.24.17-4.13-.83-7.02 2.97s-1.73 8.75-2.48 10.07c-.74 1.32-2.56.99-3.06-.41s-.66-7.35 2.31-11.39c2.97-4.05 6.52-5.04 9.41-4.87z"/><path d="m81.07 108.54c-.52-.95 1.4-2.48 2.31-2.06.91.41 4.46 4.05 4.29 4.46s-2.23 1.07-2.81.83-3.3-2.31-3.8-3.22z"/><path d="m86.11 104.57c-.24-.34 1.57-2.15 2.39-1.98.83.17 7.76 6.19 7.6 7.02s-2.15.99-2.81.74-6.77-5.2-7.18-5.78z"/><path d="m93.29 101.93c-.3-.4 1.65-2.15 2.64-1.82s8.01 7.68 7.93 8.26-2.48 1.07-2.89.99-7.18-6.77-7.68-7.43z"/><path d="m100.97 99.12c-.53-.86 1.49-2.48 2.06-2.31.58.17 5.2 4.62 5.12 5.61s-1.4.99-2.15.91c-.74-.08-4.38-3.14-5.04-4.21z"/><path d="m106.34 95.49c-.46-.39.74-2.06 1.32-2.06s3.72 3.3 3.72 3.88-1.73 1.57-2.15 1.4-2.31-2.72-2.89-3.22z"/><path d="m108.07 89.3c-.44-.77 1.32-2.23 2.06-2.23s3.39 3.3 3.55 3.96-1.24 1.82-1.98 1.65-2.97-2.23-3.63-3.39z"/><path d="m106.17 76.75c-.74-.68 1.07-2.97 2.06-2.89s5.53 4.71 5.78 5.37-.83 2.64-1.73 2.56c-.91-.08-5.12-4.13-6.11-5.04z"/><path d="m101.8 64.78c-.9-1.16.99-2.81 1.98-2.72.99.08 10.32 7.27 10.4 7.93s-.25 1.4-1.16 1.65-10.65-6.11-11.23-6.85z"/><path d="m103.37 57.1c-1.01-.87 1.16-2.72 1.9-2.72s9.5 7.43 9.5 8.01-.25 1.24-.99 1.4-9.17-5.61-10.4-6.69z"/><path d="m108.16 51.81c-.73-.98.91-2.64 1.57-2.64s5.45 3.96 5.61 4.71-.25 1.82-.74 1.82-5.7-2.89-6.44-3.88z"/><path d="m110.63 46.78c-.44-.38.17-3.14.83-3.14s3.47 2.06 3.55 2.97.08 1.82-.5 1.98c-.58.17-3.3-1.32-3.88-1.82z"/></g></svg>